# xmcd
#
# Track frame offsets:
#	150
#	10802
#	22620
#	35155
#	48423
#	56534
#	73870
#	88319
#	101452
#	114954
#	124631
#	136710
#	146787
#	159842
#
# Disc length: 2318 seconds
#
# Revision: 0
# Processed by: cddbd v1.5.2PL0 Copyright (c) Steve Scherf et al.
# Submitted via: audiograbber 1.83.01
#
DISCID=b2090c0e
DTITLE=Various Artist - Country Ameryka vol.2
DYEAR=1995
DGENRE=Country
TTITLE0=Freddy Fender - A man can cry
TTITLE1=Donna Fargo - The happiest girl in the whole USA
TTITLE2=Johnny Cash - Next in line
TTITLE3=George Jones  - When the grass grows over me
TTITLE4=Waylon Jennings - Mean old greyhound bus
TTITLE5=Willie Nelson - I let my mind wonder
TTITLE6=Billie Jo Spears - Mr.Walker,it's all over 
TTITLE7=Kenny Rogers - Rubby,don't take your love to town
TTITLE8=Willie Nelson - You'll always have someone
TTITLE9=George Jones - Am i that easy to forget
TTITLE10=Johnny Cash - Ring of fire
TTITLE11=Hank Cockin' - Please help me i'm falling
TTITLE12=Willie Nelson - Any old arms won't do
TTITLE13=Carl Perkins - Every road
EXTD=
EXTT0=
EXTT1=
EXTT2=
EXTT3=
EXTT4=
EXTT5=
EXTT6=
EXTT7=
EXTT8=
EXTT9=
EXTT10=
EXTT11=
EXTT12=
EXTT13=
PLAYORDER=
